<svg width="160" height="42" viewBox="0 0 160 42" fill="none" xmlns="http://www.w3.org/2000/svg">
<path d="M86.7639 0C87.8867 0 89.0096 0 90.1664 0C90.1664 1.38183 90.1664 2.76366 90.1664 4.18736C90.7278 4.18736 91.2892 4.18736 91.8677 4.18736C93.1559 4.28884 94.4388 4.6968 95.4403 5.54542C95.4403 5.58276 95.4403 5.62011 95.4403 5.65859C95.4723 5.67289 95.5043 5.68718 95.5373 5.70191C96.536 6.23928 97.0896 7.48504 97.4067 8.50977C97.911 10.2232 97.7354 12.1395 96.8958 13.7232C96.3335 14.669 95.5121 15.4596 94.533 15.9572C94.4924 15.9789 94.4519 16.0005 94.4101 16.0228C93.0131 16.766 91.7704 16.806 90.1664 16.806C90.1664 18.1878 90.1664 19.5697 90.1664 20.9934C89.0436 20.9934 87.9208 20.9934 86.7639 20.9934C86.7639 19.6115 86.7639 18.2297 86.7639 16.806C86.1838 16.806 85.6037 16.806 85.0059 16.806C84.6635 16.763 84.3692 16.7219 84.0419 16.6363C84.0048 16.6268 83.9677 16.6174 83.9295 16.6077C82.215 16.1625 80.8694 15.1418 79.9589 13.6372C79.7414 13.2477 79.5905 12.8418 79.4592 12.4171C79.4415 12.3611 79.4415 12.3611 79.4235 12.3039C78.9942 10.8202 79.1584 8.85592 79.8921 7.49425C80.1255 7.08211 80.4015 6.70772 80.6961 6.33762C80.7225 6.30188 80.7489 6.26614 80.7761 6.22931C81.6023 5.16533 83.1371 4.45414 84.4389 4.24394C85.2109 4.17391 85.9887 4.18736 86.7639 4.18736C86.7639 2.80553 86.7639 1.4237 86.7639 0ZM83.5315 8.0352C83.3797 8.21396 83.2541 8.3996 83.1346 8.60106C83.1078 8.64519 83.0811 8.68932 83.0535 8.73478C82.5579 9.6288 82.5612 10.7529 82.8326 11.7181C83.0751 12.4826 83.6288 13.1327 84.3254 13.524C85.1922 13.9131 85.7089 13.8635 86.7639 13.8635C86.7639 11.6414 86.7639 9.41929 86.7639 7.12982C85.4492 7.12982 84.4832 7.13042 83.5315 8.0352ZM90.1664 7.12982C90.1664 9.35195 90.1664 11.5741 90.1664 13.8635C91.3001 13.9157 91.3001 13.9157 92.3213 13.6372C92.3762 13.6119 92.4311 13.5866 92.4877 13.5605C93.133 13.2346 93.7018 12.7359 93.9419 12.0371C94.2366 11.0929 94.2935 10.1824 94.0226 9.2235C94.0068 9.16755 93.991 9.11161 93.9747 9.05396C93.8513 8.67111 93.6668 8.38984 93.3988 8.09178C93.346 8.03128 93.3461 8.03128 93.2922 7.96955C92.8079 7.44722 92.2146 7.26798 91.5274 7.12982C91.0783 7.12982 90.6291 7.12982 90.1664 7.12982Z" fill="#0C375E"/>
<path d="M49.5065 0C50.6667 0 51.827 0 53.0224 0C53.0224 2.20345 53.0224 4.40691 53.0224 6.67714C55.6049 6.67714 58.1874 6.67714 60.8482 6.67714C60.8482 4.47368 60.8482 2.27023 60.8482 0C61.9897 0 63.1312 0 64.3074 0C64.3074 5.54598 64.3074 11.092 64.3074 16.806C63.1658 16.806 62.0243 16.806 60.8482 16.806C60.8482 14.4718 60.8482 12.1377 60.8482 9.73277C58.2656 9.73277 55.6831 9.73277 53.0224 9.73277C53.0224 12.0669 53.0224 14.4011 53.0224 16.806C51.8621 16.806 50.7019 16.806 49.5065 16.806C49.5065 11.26 49.5065 5.71404 49.5065 0Z" fill="#0C375E"/>
<path d="M145.344 5.2059C145.797 5.69686 145.797 5.69686 145.797 5.88493C145.835 5.88493 145.872 5.88493 145.911 5.88493C146.504 6.96615 146.658 7.9392 146.654 9.16795C146.654 9.25167 146.654 9.33538 146.654 9.4191C146.654 9.64446 146.654 9.86983 146.654 10.0952C146.653 10.3314 146.653 10.5676 146.653 10.8039C146.653 11.2504 146.653 11.6968 146.652 12.1433C146.651 12.652 146.651 13.1606 146.651 13.6693C146.65 14.7149 146.649 15.7604 146.648 16.806C145.619 16.806 144.589 16.806 143.529 16.806C143.529 16.4139 143.529 16.0217 143.529 15.6177C143.417 15.7017 143.304 15.7858 143.189 15.8723C141.617 17.01 139.648 17.2693 137.756 16.9964C136.726 16.8263 135.773 16.4057 135.023 15.6743C134.972 15.6259 134.972 15.6259 134.921 15.5766C134.248 14.8773 134.062 13.9799 134.037 13.043C134.059 12.186 134.206 11.3559 134.796 10.6947C134.833 10.6947 134.871 10.6947 134.909 10.6947C134.922 10.6625 134.935 10.6303 134.948 10.597C135.107 10.324 135.399 10.1486 135.647 9.95912C135.707 9.9113 135.707 9.9113 135.769 9.86252C136.469 9.35139 137.431 9.11881 138.282 9.07894C138.331 9.0766 138.379 9.07427 138.429 9.07186C138.879 9.05226 139.33 9.04748 139.781 9.0438C139.893 9.04278 139.893 9.04278 140.006 9.04174C140.629 9.03616 140.629 9.03616 140.932 9.0353C141.087 9.03484 141.241 9.03378 141.395 9.03208C141.539 9.03051 141.682 9.02975 141.826 9.02998C142.31 9.02308 142.81 8.97885 143.168 8.62228C143.278 8.43152 143.312 8.32276 143.316 8.10239C143.318 8.05418 143.319 8.00596 143.321 7.95629C143.297 7.76921 143.249 7.67467 143.132 7.52592C142.068 6.81622 140.613 6.78512 139.389 7.01665C138.672 7.18996 137.86 7.51124 137.444 8.14815C137.39 8.24069 137.34 8.33577 137.291 8.4313C137.039 8.34522 136.836 8.20883 136.621 8.05642C136.33 7.85223 136.037 7.65359 135.738 7.46116C135.645 7.40089 135.645 7.40089 135.55 7.3394C135.426 7.25919 135.302 7.17959 135.177 7.10062C135.12 7.06365 135.064 7.02667 135.005 6.98858C134.954 6.9558 134.903 6.92301 134.85 6.88924C134.795 6.84027 134.795 6.84027 134.739 6.79031C134.739 6.42957 134.963 6.208 135.193 5.94152C135.332 5.81692 135.474 5.70381 135.624 5.5936C135.766 5.48907 135.766 5.48907 135.899 5.34803C137.994 3.29241 143.186 3.28569 145.344 5.2059ZM142.761 11.3753C142.334 11.4953 141.92 11.4952 141.479 11.4969C141.342 11.4982 141.205 11.4996 141.069 11.501C140.855 11.503 140.642 11.5046 140.428 11.5054C139.018 11.4611 139.018 11.4611 137.772 12.0236C137.441 12.3619 137.384 12.6028 137.388 13.0667C137.421 13.4229 137.584 13.6927 137.858 13.9201C138.006 13.9794 138.145 14.0283 138.298 14.0722C138.336 14.0842 138.375 14.0962 138.414 14.1086C139.547 14.4492 141.022 14.275 142.072 13.7221C142.264 13.6024 142.415 13.4671 142.565 13.2977C142.611 13.2509 142.611 13.2509 142.658 13.2031C143.14 12.696 143.417 12.0674 143.423 11.3667C143.42 11.313 143.418 11.2593 143.416 11.204C143.191 11.204 142.973 11.3067 142.761 11.3753Z" fill="#0C375E"/>
<path d="M76.4864 5.08964C76.5282 5.128 76.57 5.16637 76.6131 5.2059C76.6572 5.24544 76.7014 5.28497 76.7469 5.32571C77.5385 6.07054 77.8784 7.02794 77.9327 8.09582C77.938 8.32919 77.9385 8.56197 77.9367 8.79536C77.9367 8.88359 77.9367 8.97181 77.9368 9.06004C77.9368 9.29614 77.9358 9.53224 77.9346 9.76834C77.9336 10.0163 77.9335 10.2643 77.9333 10.5124C77.9328 10.9805 77.9314 11.4486 77.9296 11.9167C77.9277 12.4503 77.9268 12.9838 77.926 13.5174C77.9242 14.6136 77.9211 15.7098 77.9174 16.806C76.9068 16.806 75.8963 16.806 74.8551 16.806C74.8364 16.4139 74.8177 16.0217 74.7984 15.6177C74.7423 15.6737 74.6861 15.7297 74.6283 15.7875C74.5909 15.7875 74.5534 15.7875 74.5149 15.7875C74.4962 15.8435 74.4775 15.8995 74.4582 15.9572C74.3259 16.0464 74.1971 16.1249 74.0577 16.2013C74.0168 16.2237 73.976 16.2461 73.9339 16.2693C72.9785 16.7811 71.9141 17.0553 70.8288 17.0889C70.7647 17.0912 70.7006 17.0935 70.6346 17.0958C69.2551 17.1205 67.8599 16.8763 66.7458 16.0138C66.6704 15.9595 66.6704 15.9595 66.5934 15.9042C65.9314 15.315 65.4423 14.4548 65.3748 13.5609C65.349 12.5434 65.4168 11.5563 66.1145 10.7407C66.1781 10.6776 66.2432 10.6159 66.3105 10.5568C66.4134 10.4662 66.4134 10.4662 66.5088 10.3318C67.0923 9.64101 68.2589 9.23889 69.1276 9.11033C69.2874 9.09748 69.446 9.08695 69.6061 9.07938C69.6542 9.07704 69.7024 9.0747 69.752 9.07229C70.2091 9.05228 70.6662 9.04646 71.1237 9.04181C71.1804 9.0412 71.1804 9.0412 71.2382 9.04058C71.5919 9.03679 71.9456 9.03313 72.2993 9.03103C72.457 9.03007 72.6147 9.02867 72.7725 9.0268C72.9193 9.02506 73.0661 9.02395 73.2129 9.02357C73.6773 9.01704 74.0661 8.97502 74.4582 8.71423C74.6428 8.36622 74.6759 8.10552 74.5751 7.7169C74.2935 7.25706 73.7047 7.14695 73.2106 7.01665C72.0006 6.7496 70.5616 6.86618 69.4864 7.49829C69.0954 7.74771 68.8686 8.04909 68.6172 8.4313C68.3873 8.35208 68.2253 8.24294 68.0359 8.09178C67.7573 7.87821 67.4724 7.69644 67.1676 7.52239C66.78 7.30102 66.4192 7.06331 66.0653 6.79031C66.1395 6.21063 66.7763 5.68179 67.2126 5.33035C69.5581 3.625 74.1482 3.07753 76.4864 5.08964ZM74.4086 11.2818C73.8967 11.5051 73.3166 11.5038 72.7673 11.5064C72.7005 11.5072 72.6338 11.508 72.565 11.5089C72.2824 11.5124 71.9999 11.5147 71.7174 11.517C71.5097 11.5189 71.3021 11.5215 71.0944 11.5241C71.0316 11.5244 70.9687 11.5247 70.9039 11.525C70.1754 11.5342 69.5691 11.6258 69.0177 12.1306C68.7919 12.3715 68.7425 12.602 68.7129 12.9263C68.7443 13.2835 68.8327 13.5372 69.0921 13.7928C69.5084 14.1279 70.077 14.238 70.602 14.2596C70.6497 14.2626 70.6975 14.2655 70.7467 14.2685C71.8439 14.3048 73.0403 14.0642 73.8778 13.33C74.3842 12.8439 74.6546 12.3586 74.6954 11.6443C74.6956 11.4971 74.6928 11.351 74.685 11.204C74.5585 11.1959 74.5585 11.1959 74.4086 11.2818Z" fill="#0C375E"/>
<path d="M120.335 4.8098C120.37 4.83017 120.406 4.85054 120.442 4.87153C120.85 5.10957 121.206 5.36614 121.53 5.71341C121.627 5.81486 121.723 5.89596 121.835 5.98042C122.813 6.8049 123.304 8.33736 123.454 9.56302C123.471 9.8485 123.473 10.133 123.472 10.4189C123.472 10.4577 123.472 10.4966 123.471 10.5366C123.461 12.3056 122.881 13.8718 121.625 15.1473C120.278 16.4739 118.449 17.0698 116.585 17.0996C114.735 17.0808 112.994 16.5188 111.602 15.2782C111.568 15.2484 111.533 15.2187 111.498 15.188C110.669 14.4238 110.107 13.3684 109.865 12.2827C109.853 12.2296 109.841 12.1765 109.828 12.1219C109.594 11.0845 109.58 9.97629 109.819 8.93858C109.844 8.82644 109.866 8.71397 109.888 8.60106C110.069 7.71725 110.524 6.97346 111.092 6.28103C111.122 6.24288 111.152 6.20474 111.184 6.16543C111.393 5.90995 111.633 5.69982 111.886 5.48883C111.924 5.45462 111.962 5.42041 112.001 5.38516C112.823 4.6763 113.785 4.29849 114.835 4.07418C114.901 4.05989 114.968 4.04559 115.037 4.03086C116.765 3.7097 118.812 3.89732 120.335 4.8098ZM114.381 7.58251C114.346 7.60797 114.311 7.63342 114.276 7.65965C113.741 8.07795 113.272 8.84103 113.172 9.51417C113.127 9.98364 113.123 10.4501 113.133 10.9211C113.134 10.9773 113.135 11.0336 113.136 11.0915C113.17 11.7611 113.459 12.3273 113.871 12.845C113.899 12.8838 113.928 12.9226 113.958 12.9626C114.424 13.5471 115.057 13.8939 115.784 14.0121C115.828 14.0197 115.871 14.0273 115.915 14.0351C116.781 14.1787 117.729 14.0845 118.464 13.5806C118.504 13.555 118.543 13.5294 118.584 13.503C119.169 13.1008 119.62 12.5372 119.807 11.8547C119.819 11.8132 119.831 11.7717 119.844 11.729C120.144 10.6732 120.084 9.46029 119.541 8.48788C119.094 7.7235 118.458 7.25359 117.613 6.99189C116.495 6.71149 115.306 6.86275 114.381 7.58251Z" fill="#0C375E"/>
<path d="M154.36 3.90443C154.424 3.90746 154.424 3.90746 154.488 3.91056C155.895 3.98558 157.467 4.20703 158.495 5.26006C158.592 5.37318 158.689 5.48696 158.784 5.602C158.814 5.63826 158.845 5.67451 158.876 5.71186C159.438 6.41057 159.473 7.23057 159.407 8.09178C159.335 8.44439 159.214 8.75551 159.01 9.05374C158.973 9.05374 158.936 9.05374 158.897 9.05374C158.884 9.08511 158.871 9.11647 158.857 9.14879C158.763 9.31596 158.646 9.43436 158.511 9.57009C158.462 9.61925 158.414 9.66842 158.364 9.71907C158.222 9.84151 158.111 9.90246 157.933 9.95912C157.933 9.99646 157.933 10.0338 157.933 10.0723C157.98 10.0856 158.028 10.099 158.077 10.1127C158.832 10.3924 159.457 10.9629 159.804 11.6819C159.973 12.1098 159.995 12.4816 159.996 12.9405C159.997 13.0032 159.999 13.0659 160 13.1305C160.003 13.9728 159.662 14.7481 159.093 15.3701C158.964 15.4917 158.82 15.5805 158.67 15.6743C158.597 15.7354 158.524 15.7967 158.45 15.8582C156.759 17.1699 154.22 17.2483 152.184 16.9969C151.77 16.9383 151.364 16.8475 150.958 16.7494C150.905 16.7374 150.851 16.7254 150.797 16.713C150.066 16.5245 149.325 16.0947 148.746 15.6177C148.746 15.5804 148.746 15.543 148.746 15.5045C148.713 15.4897 148.679 15.4748 148.644 15.4594C148.288 15.2653 148.074 14.8792 147.874 14.539C147.855 14.5064 147.835 14.4737 147.815 14.4401C147.684 14.2098 147.644 14.0106 147.612 13.7504C148.125 13.5105 148.643 13.2823 149.164 13.0607C149.234 13.031 149.304 13.0013 149.374 12.9715C149.505 12.9156 149.637 12.8597 149.768 12.804C149.904 12.7461 150.039 12.6866 150.173 12.6264C150.334 12.5621 150.334 12.5621 150.504 12.5621C150.586 12.6823 150.586 12.6823 150.674 12.845C150.986 13.3553 151.474 13.6703 152.035 13.8635C152.256 13.9112 152.477 13.9386 152.702 13.9626C152.762 13.9694 152.822 13.9763 152.885 13.9834C153.641 14.0653 154.348 14.0268 155.098 13.9201C155.149 13.9133 155.201 13.9064 155.254 13.8994C155.623 13.8363 155.948 13.6576 156.199 13.3777C156.408 13.0808 156.453 12.7466 156.402 12.3923C156.28 12.1015 156.078 11.948 155.798 11.8165C155.4 11.6776 155.039 11.6385 154.621 11.6333C154.548 11.6318 154.548 11.6318 154.474 11.6302C154.294 11.6267 154.115 11.6241 153.935 11.6213C153.332 11.6108 153.332 11.6108 152.716 11.6001C152.716 10.6851 152.716 9.77012 152.716 8.8274C153.613 8.80618 153.613 8.80618 153.891 8.80035C154.823 8.78879 154.823 8.78879 155.665 8.4313C155.859 8.18739 155.904 7.97719 155.87 7.67093C155.723 7.34858 155.45 7.21651 155.138 7.06793C153.962 6.67534 152.42 6.86945 151.319 7.39861C150.972 7.57495 150.732 7.77369 150.504 8.09178C150.448 8.14892 150.391 8.20559 150.334 8.26154C150.303 8.24103 150.271 8.22053 150.239 8.1994C150.094 8.10448 149.948 8.00971 149.802 7.91495C149.728 7.86659 149.728 7.86659 149.653 7.81725C149.361 7.62749 149.066 7.44507 148.767 7.2675C148.565 7.14514 148.368 7.01443 148.172 6.88226C148.115 6.84407 148.115 6.84407 148.057 6.80512C147.965 6.74372 147.874 6.68215 147.782 6.62055C147.851 6.11982 148.319 5.79485 148.69 5.48883C148.724 5.4582 148.758 5.42756 148.794 5.396C149.082 5.15226 149.399 4.97536 149.732 4.79919C149.776 4.77564 149.82 4.7521 149.865 4.72784C150.411 4.44552 150.965 4.26909 151.567 4.15199C151.628 4.14001 151.689 4.12804 151.752 4.1157C152.605 3.95554 153.492 3.85924 154.36 3.90443Z" fill="#0C375E"/>
<path d="M97.4251 4.18736C101.561 4.18736 105.697 4.18736 109.958 4.18736C109.958 5.1397 109.958 6.09204 109.958 7.07324C109.939 7.09191 109.92 7.11058 109.901 7.12982C108.385 7.12982 106.869 7.12982 105.308 7.12982C105.308 10.323 105.308 13.5161 105.308 16.806C104.203 16.806 103.099 16.806 101.962 16.806C101.962 13.6129 101.962 10.4197 101.962 7.12982C100.465 7.12982 98.9676 7.12982 97.4251 7.12982C97.4251 6.15881 97.4251 5.1878 97.4251 4.18736Z" fill="#0C375E"/>
<path d="M128.807 4.1763C128.958 4.17652 129.108 4.17668 129.258 4.17679C129.611 4.17714 129.964 4.17806 130.316 4.17921C130.758 4.1806 131.2 4.18122 131.642 4.18183C132.429 4.18293 133.215 4.18519 134.002 4.18736C134.002 5.15837 134.002 6.12938 134.002 7.12982C133.362 7.133 133.362 7.13299 132.709 7.13623C132.439 7.13795 132.169 7.13971 131.899 7.14165C131.471 7.14472 131.042 7.14762 130.613 7.14943C130.267 7.1509 129.922 7.15318 129.576 7.15603C129.444 7.15698 129.312 7.15763 129.18 7.15798C128.996 7.15852 128.811 7.16011 128.626 7.16194C128.572 7.16186 128.517 7.16178 128.461 7.1617C128.186 7.16555 127.982 7.16873 127.764 7.35617C127.7 7.5484 127.7 7.69588 127.698 7.89865C127.698 7.93669 127.698 7.97473 127.698 8.01392C127.697 8.14164 127.696 8.26936 127.696 8.39708C127.695 8.48853 127.695 8.57998 127.694 8.67144C127.693 8.91998 127.691 9.16852 127.69 9.41706C127.689 9.6767 127.687 9.93634 127.686 10.196C127.683 10.6878 127.68 11.1796 127.678 11.6713C127.675 12.2312 127.672 12.791 127.669 13.3508C127.663 14.5026 127.657 15.6543 127.651 16.806C126.547 16.806 125.442 16.806 124.305 16.806C124.301 15.5905 124.298 14.375 124.296 13.1595C124.295 12.5951 124.294 12.0306 124.292 11.4661C124.29 10.9738 124.289 10.4814 124.289 9.989C124.289 9.72864 124.288 9.4683 124.287 9.20795C124.286 8.96211 124.285 8.71629 124.286 8.47045C124.286 8.38097 124.285 8.2915 124.285 8.20202C124.277 7.15314 124.385 6.11281 125.042 5.26249C125.076 5.2123 125.11 5.16212 125.145 5.11041C126.131 4.07004 127.491 4.17084 128.807 4.1763Z" fill="#0C375E"/>
<path d="M135.306 10.2986C135.222 10.4989 135.107 10.6155 134.948 10.7619C134.704 10.9985 134.543 11.2374 134.399 11.5435C134.342 11.3738 134.342 11.3738 134.418 11.223C134.472 11.1401 134.472 11.1401 134.527 11.0555C134.562 10.9999 134.597 10.9443 134.634 10.887C134.739 10.7513 134.739 10.7513 134.909 10.6947C134.949 10.6203 134.987 10.5447 135.023 10.4684C135.169 10.2986 135.169 10.2986 135.306 10.2986Z" fill="#0C375E"/>
<path d="M148.86 5.31907C148.897 5.33775 148.935 5.35642 148.973 5.37566C148.655 5.69311 148.337 6.01055 148.009 6.33762C147.972 6.31895 147.934 6.30027 147.896 6.28103C148.109 6.02052 148.328 5.79507 148.586 5.57813C148.682 5.49556 148.771 5.40971 148.86 5.31907Z" fill="#0C375E"/>
<path d="M110.752 26.5388C110.789 26.5575 110.826 26.5761 110.865 26.5954C110.808 26.6498 110.808 26.6498 110.749 26.7052C110.473 26.9727 110.238 27.2095 110.071 27.5573C110.052 27.52 110.034 27.4826 110.014 27.4442C110.185 27.0614 110.42 26.7899 110.752 26.5388Z" fill="#0C375E"/>
<path d="M98.7861 26.4256C98.8235 26.4443 98.8609 26.463 98.8995 26.4822C98.7982 26.5863 98.6966 26.69 98.5947 26.7934C98.5659 26.8231 98.5371 26.8528 98.5074 26.8834C98.4323 26.9593 98.3542 27.0322 98.2757 27.1046C98.2383 27.1046 98.2009 27.1046 98.1623 27.1046C98.2476 26.8971 98.3686 26.7827 98.538 26.6378C98.6075 26.5779 98.6075 26.5779 98.6784 26.5167C98.714 26.4866 98.7495 26.4566 98.7861 26.4256Z" fill="#0C375E"/>
<path d="M111.716 5.602C111.753 5.602 111.79 5.602 111.829 5.602C111.75 5.78072 111.656 5.9032 111.517 6.04054C111.465 6.09263 111.465 6.09263 111.413 6.14576C111.319 6.22445 111.319 6.22445 111.205 6.22445C111.294 6.00791 111.434 5.87474 111.602 5.71518C111.64 5.67783 111.677 5.64048 111.716 5.602Z" fill="#0C375E"/>
<path d="M77.2936 38.7613C77.2936 38.9311 77.2936 38.9311 77.2068 39.0343C77.1699 39.0691 77.1331 39.1039 77.0951 39.1398C77.0583 39.175 77.0214 39.2102 76.9835 39.2465C76.9548 39.2731 76.9262 39.2998 76.8966 39.3272C76.8592 39.3085 76.8218 39.2899 76.7832 39.2706C76.8468 39.1962 76.9106 39.1219 76.9746 39.0478C77.0101 39.0064 77.0457 38.9651 77.0823 38.9225C77.1802 38.8179 77.1802 38.8179 77.2936 38.7613Z" fill="#0C375E"/>
<path d="M81.4333 5.602C81.4707 5.62068 81.5082 5.63935 81.5467 5.65859C81.3596 5.84532 81.1725 6.03206 80.9796 6.22445C80.9422 6.20578 80.9048 6.1871 80.8662 6.16786C81.0553 5.97924 81.2443 5.79062 81.4333 5.602Z" fill="#0C375E"/>
<path d="M135.647 5.54542C135.684 5.56409 135.721 5.58276 135.76 5.602C135.592 5.77006 135.423 5.93812 135.25 6.11128C135.231 6.05526 135.212 5.99924 135.193 5.94152C135.343 5.81081 135.492 5.68009 135.647 5.54542Z" fill="#0C375E"/>
<path d="M49.7333 24.8816C49.7333 24.4618 49.843 24.1447 50.0625 23.9305C50.2907 23.7077 50.6199 23.5963 51.05 23.5963H55.4608V24.2133H51.1026C50.892 24.2133 50.7296 24.269 50.6155 24.3804C50.5014 24.4918 50.4443 24.6503 50.4443 24.8559V32.5935H49.7333V24.8816Z" fill="#0C375E"/>
<path d="M53.824 27.9C53.9457 27.3111 54.2324 26.8522 54.6841 26.5231C55.1359 26.194 55.7093 26.0295 56.4043 26.0295C57.1253 26.0295 57.6944 26.2157 58.1114 26.5881C58.5371 26.9518 58.7499 27.4454 58.7499 28.0689V32.6282H58.1114V31.5111C57.8768 31.9008 57.5597 32.2039 57.1601 32.4204C56.7605 32.6282 56.3044 32.7321 55.7918 32.7321C55.1228 32.7321 54.5886 32.5632 54.1889 32.2255C53.7893 31.8878 53.5895 31.4375 53.5895 30.8746C53.5895 30.3204 53.8023 29.8831 54.228 29.5627C54.6537 29.2336 55.2271 29.0691 55.9482 29.0691H56.4694C57.0602 29.0691 57.4815 28.9911 57.7335 28.8353C57.9854 28.6794 58.1114 28.4239 58.1114 28.0689C58.1114 27.6186 57.955 27.2592 57.6423 26.9907C57.3295 26.7223 56.8995 26.5881 56.3521 26.5881C55.8048 26.5881 55.3704 26.705 55.049 26.9388C54.7362 27.1726 54.5234 27.532 54.4105 28.0169L53.824 27.9ZM54.241 30.8746C54.241 31.2903 54.3757 31.615 54.645 31.8488C54.923 32.0826 55.3053 32.1995 55.7918 32.1995C56.4868 32.1995 57.0472 31.9787 57.4729 31.5371C57.8985 31.0954 58.1114 30.5152 58.1114 29.7965V29.173C57.816 29.4674 57.2687 29.6146 56.4694 29.6146H55.9482C55.3835 29.6146 54.9578 29.7229 54.6711 29.9394C54.3844 30.1472 54.241 30.4589 54.241 30.8746Z" fill="#0C375E"/>
<path d="M97.7731 27.9C97.8947 27.3111 98.1814 26.8522 98.6332 26.5231C99.0849 26.194 99.6583 26.0295 100.353 26.0295C101.074 26.0295 101.643 26.2157 102.06 26.5881C102.486 26.9518 102.699 27.4454 102.699 28.0689V32.6282H102.06V31.5111C101.826 31.9008 101.509 32.2039 101.109 32.4204C100.709 32.6282 100.253 32.7321 99.7408 32.7321C99.0719 32.7321 98.5376 32.5632 98.138 32.2255C97.7383 31.8878 97.5385 31.4375 97.5385 30.8746C97.5385 30.3204 97.7514 29.8831 98.177 29.5627C98.6027 29.2336 99.1761 29.0691 99.8972 29.0691H100.418C101.009 29.0691 101.431 28.9911 101.683 28.8353C101.934 28.6794 102.06 28.4239 102.06 28.0689C102.06 27.6186 101.904 27.2592 101.591 26.9907C101.279 26.7223 100.849 26.5881 100.301 26.5881C99.7539 26.5881 99.3195 26.705 98.998 26.9388C98.6853 27.1726 98.4724 27.532 98.3595 28.0169L97.7731 27.9ZM98.1901 30.8746C98.1901 31.2903 98.3247 31.615 98.5941 31.8488C98.8721 32.0826 99.2543 32.1995 99.7408 32.1995C100.436 32.1995 100.996 31.9787 101.422 31.5371C101.848 31.0954 102.06 30.5152 102.06 29.7965V29.173C101.765 29.4674 101.218 29.6146 100.418 29.6146H99.8972C99.3325 29.6146 98.9068 29.7229 98.6201 29.9394C98.3334 30.1472 98.1901 30.4589 98.1901 30.8746Z" fill="#0C375E"/>
<path d="M76.8477 37.1235C76.9693 36.5346 77.256 36.0757 77.7077 35.7466C78.1595 35.4175 78.7329 35.253 79.4279 35.253C80.149 35.253 80.718 35.4392 81.135 35.8116C81.5607 36.1753 81.7736 36.6689 81.7736 37.2924V41.8517H81.135V40.7346C80.9005 41.1243 80.5834 41.4274 80.1837 41.6439C79.7841 41.8517 79.328 41.9556 78.8154 41.9556C78.1465 41.9556 77.6122 41.7868 77.2125 41.449C76.8129 41.1113 76.6131 40.661 76.6131 40.0981C76.6131 39.5439 76.8259 39.1066 77.2516 38.7862C77.6773 38.4571 78.2507 38.2926 78.9718 38.2926H79.4931C80.0838 38.2926 80.5052 38.2146 80.7571 38.0588C81.0091 37.9029 81.135 37.6474 81.135 37.2924C81.135 36.8421 80.9786 36.4827 80.6659 36.2142C80.3531 35.9458 79.9231 35.8116 79.3758 35.8116C78.8284 35.8116 78.3941 35.9285 78.0726 36.1623C77.7599 36.3961 77.547 36.7555 77.4341 37.2404L76.8477 37.1235ZM77.2647 40.0981C77.2647 40.5138 77.3993 40.8385 77.6686 41.0723C77.9466 41.3061 78.3289 41.423 78.8154 41.423C79.5104 41.423 80.0708 41.2022 80.4965 40.7606C80.9222 40.3189 81.135 39.7387 81.135 39.02V38.3965C80.8396 38.6909 80.2923 38.8381 79.4931 38.8381H78.9718C78.4071 38.8381 77.9814 38.9464 77.6947 39.1629C77.408 39.3707 77.2647 39.6824 77.2647 40.0981Z" fill="#0C375E"/>
<path d="M109.909 27.9C110.03 27.3111 110.317 26.8522 110.769 26.5231C111.221 26.194 111.794 26.0295 112.489 26.0295C113.21 26.0295 113.779 26.2157 114.196 26.5881C114.622 26.9518 114.835 27.4454 114.835 28.0689V32.6282H114.196V31.5111C113.961 31.9008 113.644 32.2039 113.245 32.4204C112.845 32.6282 112.389 32.7321 111.876 32.7321C111.207 32.7321 110.673 32.5632 110.274 32.2255C109.874 31.8878 109.674 31.4375 109.674 30.8746C109.674 30.3204 109.887 29.8831 110.313 29.5627C110.738 29.2336 111.312 29.0691 112.033 29.0691H112.554C113.145 29.0691 113.566 28.9911 113.818 28.8353C114.07 28.6794 114.196 28.4239 114.196 28.0689C114.196 27.6186 114.04 27.2592 113.727 26.9907C113.414 26.7223 112.984 26.5881 112.437 26.5881C111.889 26.5881 111.455 26.705 111.134 26.9388C110.821 27.1726 110.608 27.532 110.495 28.0169L109.909 27.9ZM110.326 30.8746C110.326 31.2903 110.46 31.615 110.73 31.8488C111.008 32.0826 111.39 32.1995 111.876 32.1995C112.571 32.1995 113.132 31.9787 113.557 31.5371C113.983 31.0954 114.196 30.5152 114.196 29.7965V29.173C113.901 29.4674 113.353 29.6146 112.554 29.6146H112.033C111.468 29.6146 111.042 29.7229 110.756 29.9394C110.469 30.1472 110.326 30.4589 110.326 30.8746Z" fill="#0C375E"/>
<path d="M135.314 27.9C135.436 27.3111 135.722 26.8522 136.174 26.5231C136.626 26.194 137.199 26.0295 137.894 26.0295C138.615 26.0295 139.184 26.2157 139.601 26.5881C140.027 26.9518 140.24 27.4454 140.24 28.0689V32.6282H139.601V31.5111C139.367 31.9008 139.05 32.2039 138.65 32.4204C138.25 32.6282 137.794 32.7321 137.282 32.7321C136.613 32.7321 136.079 32.5632 135.679 32.2255C135.279 31.8878 135.079 31.4375 135.079 30.8746C135.079 30.3204 135.292 29.8831 135.718 29.5627C136.144 29.2336 136.717 29.0691 137.438 29.0691H137.959C138.55 29.0691 138.972 28.9911 139.224 28.8353C139.475 28.6794 139.601 28.4239 139.601 28.0689C139.601 27.6186 139.445 27.2592 139.132 26.9907C138.82 26.7223 138.389 26.5881 137.842 26.5881C137.295 26.5881 136.86 26.705 136.539 26.9388C136.226 27.1726 136.013 27.532 135.9 28.0169L135.314 27.9ZM135.731 30.8746C135.731 31.2903 135.866 31.615 136.135 31.8488C136.413 32.0826 136.795 32.1995 137.282 32.1995C137.977 32.1995 138.537 31.9787 138.963 31.5371C139.389 31.0954 139.601 30.5152 139.601 29.7965V29.173C139.306 29.4674 138.759 29.6146 137.959 29.6146H137.438C136.873 29.6146 136.448 29.7229 136.161 29.9394C135.874 30.1472 135.731 30.4589 135.731 30.8746Z" fill="#0C375E"/>
<path d="M68.8409 32.7321C67.895 32.7321 67.1486 32.4334 66.6019 31.8358C66.0552 31.2297 65.7818 30.4113 65.7818 29.3808C65.7818 28.7313 65.9076 28.1511 66.1593 27.6402C66.4196 27.1293 66.7798 26.7353 67.2398 26.4582C67.7084 26.1724 68.2421 26.0295 68.8409 26.0295C69.7869 26.0295 70.5332 26.3326 71.08 26.9388C71.6267 27.5363 71.9001 28.3503 71.9001 29.3808C71.9001 30.0303 71.7699 30.6105 71.5096 31.1214C71.2579 31.6323 70.8977 32.0307 70.4291 32.3164C69.9691 32.5936 69.4398 32.7321 68.8409 32.7321ZM68.8409 32.1736C69.5786 32.1736 70.1601 31.9268 70.5853 31.4332C71.0105 30.9309 71.2232 30.2468 71.2232 29.3808C71.2232 28.5148 71.0105 27.8351 70.5853 27.3415C70.1601 26.8392 69.5786 26.5881 68.8409 26.5881C68.1033 26.5881 67.5218 26.8392 67.0966 27.3415C66.6713 27.8351 66.4587 28.5148 66.4587 29.3808C66.4587 30.2468 66.6713 30.9309 67.0966 31.4332C67.5218 31.9268 68.1033 32.1736 68.8409 32.1736Z" fill="#0C375E"/>
<path d="M58.123 41.9556C57.1771 41.9556 56.4307 41.6569 55.884 41.0593C55.3373 40.4532 55.0639 39.6348 55.0639 38.6043C55.0639 37.9548 55.1897 37.3746 55.4414 36.8637C55.7018 36.3528 56.0619 35.9588 56.5219 35.6817C56.9905 35.3959 57.5242 35.253 58.123 35.253C59.069 35.253 59.8153 35.5561 60.3621 36.1623C60.9088 36.7598 61.1822 37.5738 61.1822 38.6043C61.1822 39.2538 61.052 39.834 60.7917 40.3449C60.54 40.8558 60.1798 41.2542 59.7112 41.5399C59.2512 41.8171 58.7219 41.9556 58.123 41.9556ZM58.123 41.3971C58.8607 41.3971 59.4422 41.1503 59.8674 40.6567C60.2927 40.1544 60.5053 39.4703 60.5053 38.6043C60.5053 37.7383 60.2927 37.0586 59.8674 36.565C59.4422 36.0627 58.8607 35.8116 58.123 35.8116C57.3854 35.8116 56.8039 36.0627 56.3787 36.565C55.9534 37.0586 55.7408 37.7383 55.7408 38.6043C55.7408 39.4703 55.9534 40.1544 56.3787 40.6567C56.8039 41.1503 57.3854 41.3971 58.123 41.3971Z" fill="#0C375E"/>
<path d="M82.5077 32.7321C81.5617 32.7321 80.8154 32.4334 80.2686 31.8358C79.7219 31.2297 79.4485 30.4113 79.4485 29.3808C79.4485 28.7313 79.5744 28.1511 79.826 27.6402C80.0864 27.1293 80.4465 26.7353 80.9065 26.4582C81.3751 26.1724 81.9089 26.0295 82.5077 26.0295C83.4536 26.0295 84.2 26.3326 84.7467 26.9388C85.2934 27.5363 85.5668 28.3503 85.5668 29.3808C85.5668 30.0303 85.4366 30.6105 85.1763 31.1214C84.9246 31.6323 84.5645 32.0307 84.0958 32.3164C83.6359 32.5936 83.1065 32.7321 82.5077 32.7321ZM82.5077 32.1736C83.2453 32.1736 83.8268 31.9268 84.252 31.4332C84.6773 30.9309 84.8899 30.2468 84.8899 29.3808C84.8899 28.5148 84.6773 27.8351 84.252 27.3415C83.8268 26.8392 83.2453 26.5881 82.5077 26.5881C81.77 26.5881 81.1885 26.8392 80.7633 27.3415C80.3381 27.8351 80.1254 28.5148 80.1254 29.3808C80.1254 30.2468 80.3381 30.9309 80.7633 31.4332C81.1885 31.9268 81.77 32.1736 82.5077 32.1736Z" fill="#0C375E"/>
<path d="M78.1442 26.1993V32.5935H77.4985V26.7492H73.8564V32.5935H73.2106V26.1993H78.1442Z" fill="#0C375E"/>
<path d="M75.4222 35.5359V41.9301H74.7765V36.0858H71.1343V41.9301H70.4886V35.5359H75.4222Z" fill="#0C375E"/>
<path d="M97.3684 26.7492H95.1931V32.5935H94.5533V26.7492H92.378V26.1993H97.3684V26.7492Z" fill="#0C375E"/>
<path d="M104.505 26.0861V28.5124C104.505 29.2453 104.935 29.6117 105.795 29.6117H107.931V26.0861H108.602V32.7887H107.931V30.1881H105.795C105.159 30.1881 104.671 30.0451 104.33 29.7591C103.999 29.4731 103.833 29.0576 103.833 28.5124V26.0861H104.505Z" fill="#0C375E"/>
<path d="M62.3954 32.7321C61.6182 32.7321 61.0007 32.5459 60.543 32.1736C60.094 31.8012 59.8176 31.2686 59.714 30.5759L60.3487 30.4849C60.4523 31.0651 60.6726 31.4894 61.0093 31.7579C61.3461 32.0263 61.8082 32.1606 62.3954 32.1606C62.9654 32.1606 63.4015 32.048 63.7037 31.8228C64.006 31.5977 64.1571 31.26 64.1571 30.8097C64.1571 29.9783 63.5915 29.5627 62.4602 29.5627H61.9161V29.0041H62.512C62.9697 29.0041 63.3281 28.9002 63.5871 28.6924C63.8462 28.4759 63.9757 28.1814 63.9757 27.8091C63.9757 27.4107 63.8333 27.112 63.5483 26.9128C63.2633 26.705 62.8661 26.6011 62.3565 26.6011C61.3202 26.6011 60.72 27.0773 60.556 28.0299L59.8953 27.913C59.9817 27.3328 60.2451 26.8738 60.6855 26.5361C61.1346 26.1984 61.7088 26.0295 62.4083 26.0295C63.0992 26.0295 63.6433 26.194 64.0405 26.5231C64.4464 26.8522 64.6493 27.2722 64.6493 27.7831C64.6493 28.1208 64.5587 28.4109 64.3773 28.6534C64.196 28.8959 63.9455 29.0864 63.626 29.2249C64.4205 29.4674 64.8177 29.987 64.8177 30.7837C64.8177 31.3812 64.6062 31.8575 64.183 32.2125C63.7599 32.5589 63.164 32.7321 62.3954 32.7321Z" fill="#0C375E"/>
<path d="M89.3567 32.2115C89.9104 32.2115 90.369 32.0604 90.7324 31.7582C91.0958 31.4474 91.3294 31.0114 91.4332 30.4503L92.0172 30.5927C91.8701 31.2575 91.563 31.7884 91.0958 32.1856C90.6286 32.5741 90.0402 32.7683 89.3307 32.7683C88.7597 32.7683 88.2536 32.6388 87.8123 32.3798C87.3797 32.1208 87.038 31.7453 86.787 31.2532C86.5448 30.7524 86.4237 30.1611 86.4237 29.479C86.4237 28.797 86.5448 28.2013 86.787 27.6919C87.038 27.1825 87.3884 26.7897 87.8383 26.5135C88.2882 26.2285 88.8116 26.0861 89.4086 26.0861C90.0921 26.0861 90.6632 26.2674 91.1217 26.63C91.5803 26.9926 91.8874 27.4933 92.0432 28.1322L91.4073 28.2747C91.2861 27.7567 91.0482 27.3552 90.6934 27.0703C90.3474 26.7854 89.9104 26.6429 89.3827 26.6429C88.6732 26.6429 88.1151 26.8933 87.7085 27.3941C87.3018 27.8862 87.0985 28.5682 87.0985 29.4402C87.0985 30.2949 87.2975 30.9726 87.6955 31.4733C88.0935 31.9654 88.6472 32.2115 89.3567 32.2115Z" fill="#0C375E"/>
<path d="M115.969 32.1587H116.233C116.494 32.1587 116.697 32.0368 116.843 31.7931C116.995 31.5494 117.107 31.1076 117.18 30.4678C117.259 29.8219 117.313 28.8835 117.344 27.6526L117.38 26.1993H121.241V32.5974H120.749V26.638H117.854L117.826 27.6617C117.796 29.0449 117.726 30.0839 117.617 30.7785C117.508 31.4732 117.344 31.9515 117.125 32.2135C116.913 32.4695 116.603 32.5974 116.196 32.5974H115.969V32.1587Z" fill="#0C375E"/>
<path d="M123.001 26.1427H123.651V28.9225H125.539C126.216 28.9225 126.741 29.0871 127.114 29.4161C127.496 29.7452 127.687 30.2042 127.687 30.7931C127.687 31.3473 127.487 31.7933 127.088 32.131C126.698 32.4687 126.181 32.6376 125.539 32.6376H123.001V26.1427ZM125.552 32.0791C126.029 32.0791 126.39 31.9708 126.633 31.7543C126.884 31.5378 127.01 31.2174 127.01 30.7931C127.01 30.3601 126.884 30.0353 126.633 29.8188C126.39 29.5937 126.029 29.4811 125.552 29.4811H123.651V32.0791H125.552Z" fill="#0C375E"/>
<path d="M133.193 29.5936H129.537V32.6501H128.898V26.2559H129.537V29.0437H133.193V26.2559H133.832V32.6501H133.193V29.5936Z" fill="#0C375E"/>
<path d="M87.656 38.8737H84.0005V41.9301H83.3614V35.5359H84.0005V38.3238H87.656V35.5359H88.295V41.9301H87.656V38.8737Z" fill="#0C375E"/>
<path d="M50.2671 35.4794V38.825L53.7883 35.4794H54.6039L52.0018 37.9466L54.7074 41.9381H53.9307L51.5358 38.3858L50.2671 39.5742V41.9381H49.6199V35.4794H50.2671Z" fill="#0C375E"/>
<path d="M62.3226 35.4794H63.191L65.5242 41.027L67.8444 35.4794H68.6739V41.9301H68.0258V36.4986L65.7445 41.9301H65.252L62.9707 36.4986V41.9301H62.3226V35.4794Z" fill="#0C375E"/>
<path d="M90.0427 35.544H90.6871V41.9301H90.0427V35.544ZM89.9396 32.9896H90.7902V33.9092H89.9396V32.9896Z" fill="#0C375E"/>
<path d="M92.4113 39.8186C92.4113 39.2459 92.6597 38.9125 93.1566 38.8185C92.891 38.6646 92.6854 38.4637 92.5398 38.2158C92.3941 37.9594 92.3213 37.6773 92.3213 37.3695C92.3213 36.831 92.5184 36.3908 92.9124 36.0488C93.3065 35.7069 93.8162 35.5359 94.4416 35.5359H97.0887V41.9471H96.4462V39.2031H93.6063C93.238 39.2031 93.0538 39.3869 93.0538 39.7545V41.9471H92.4113V39.8186ZM92.9638 37.3183C92.9638 37.7542 93.0966 38.0919 93.3622 38.3312C93.6363 38.5706 94.0175 38.6902 94.5059 38.6902H96.4462V36.0873H94.4288C93.9661 36.0873 93.6063 36.1942 93.3493 36.4079C93.0923 36.6216 92.9638 36.925 92.9638 37.3183Z" fill="#0C375E"/>
<path d="M41.9672 0V42H0V0H41.9672ZM16.8016 5.0174C9.6666 6.96945 4.42196 13.5012 4.42196 21.2612C4.42218 30.5607 11.9558 38.0999 21.2483 38.1C26.6266 38.1 31.1181 33.5135 29.4535 28.4689C27.8195 23.2656 21.6621 22.93 17.3446 21.1929C14.2995 20.0173 11.5437 17.518 11.0494 14.1636C10.3403 10.1926 13.0472 6.21714 16.8016 5.0174ZM21.2483 4.42159C20.6085 4.42159 20.053 4.47135 19.4373 4.58207C13.7851 5.61181 10.5576 11.6461 14.1965 16.2959C16.7301 19.4543 21.0482 19.7871 24.5987 21.1425C28.103 22.338 31.3266 25.2495 31.5096 29.1458C31.7901 32.8931 29.2453 36.2218 25.8504 37.4632C28.4366 36.7427 30.7634 35.3703 32.646 33.6212C32.68 33.5872 32.7127 33.5531 32.7433 33.5213C35.4544 30.7917 35.963 26.5409 33.9182 23.2663C32.6131 21.0523 30.6549 19.2921 28.6595 17.7086C27.2086 16.5319 25.663 15.3859 24.6055 13.8188C23.5219 12.1849 22.9807 10.0147 23.7355 8.14068C24.3316 6.61194 26.0145 5.66518 27.6298 5.87355C28.0514 5.91526 28.4491 6.04878 28.8303 6.22523C26.5521 5.07162 23.9779 4.42159 21.2483 4.42159ZM31.39 7.82485C29.1326 6.1009 26.3098 6.75769 25.7257 9.15389C24.8964 12.5611 28.0057 14.5934 30.286 16.4555C33.2052 18.8593 36.051 22.0154 36.2406 25.9807C36.348 28.0544 35.6291 30.0658 34.4271 31.7305C35.8571 29.932 37.1808 27.4905 37.5205 25.011C37.7538 23.0426 37.5772 21.0655 36.8912 19.1443C36.168 17.1177 34.5048 14.8868 35.0461 13.8768C35.3518 13.307 36.1453 13.4441 36.4122 13.9562C35.2443 11.5335 33.5146 9.44645 31.39 7.82485Z" fill="#0C375E"/>
</svg>
